<?xml version="1.0" encoding="UTF-8"?>
<svg id="Layer_2" data-name="Layer 2" xmlns="http://www.w3.org/2000/svg" viewBox="0 0 131.81 122.89">
  <defs>
    <style>
      .cls-1 {
        stroke: #48466d;
        stroke-linecap: round;
        stroke-miterlimit: 10;
      }

      .cls-1, .cls-2 {
        fill: none;
      }
    </style>
  </defs>
  <g id="Layer_1-2" data-name="Layer 1">
    <g>
      <polyline class="cls-1" points="65.82 107.41 24.08 107.41 24.08 38.3"/>
      <path class="cls-1" d="m24.08,31.8v-11.27c0-.55.45-1,1-1h5.41c.55,0,1,.45,1,1v5.4"/>
      <rect class="cls-1" x="31.71" y="49" width="9" height="8.38" rx="1" ry="1"/>
      <rect class="cls-1" x="48.76" y="49" width="9" height="8.38" rx="1" ry="1"/>
      <rect class="cls-1" x="31.71" y="65.94" width="9" height="8.38" rx="1" ry="1"/>
      <rect class="cls-1" x="48.76" y="65.94" width="9" height="8.38" rx="1" ry="1"/>
      <path class="cls-1" d="m37.67,107.41v-22.82c0-.55.45-1,1-1h12.91c.55,0,1,.45,1,1v22.82"/>
      <circle class="cls-1" cx="39.12" cy="95.8" r=".31"/>
      <polyline class="cls-1" points="66.08 82.92 66.08 107.41 107.82 107.41 107.82 38.51"/>
      <line class="cls-1" x1="66.08" y1="73.92" x2="66.08" y2="75.25"/>
      <line class="cls-1" x1="66.08" y1="42.15" x2="66.08" y2="66.2"/>
      <path class="cls-1" d="m66.08,32.08v-11.56c0-.55.45-1,1-1h5.41c.55,0,1,.45,1,1v5.68"/>
      <path class="cls-1" d="m66.08,42.15l-20.55-16.48c-.37-.29-.89-.29-1.25,0l-17.42,13.97c-.38.3-.92.29-1.29-.03l-4.47-3.95c-.47-.41-.45-1.15.04-1.53l22.53-17.86c.73-.58,1.76-.58,2.49,0l19.93,15.8,19.58-15.52c.73-.58,1.76-.58,2.49,0l22.53,17.86c.49.39.51,1.12.04,1.53l-4.47,3.95c-.36.32-.91.33-1.29.03l-17.42-13.97c-.37-.29-.89-.29-1.25,0,0,0-20.2,16.2-20.2,16.2Z"/>
      <rect class="cls-1" x="73.71" y="49" width="9" height="8.38" rx="1" ry="1"/>
      <rect class="cls-1" x="90.76" y="49" width="9" height="8.38" rx="1" ry="1"/>
      <rect class="cls-1" x="73.71" y="65.94" width="9" height="8.38" rx="1" ry="1"/>
      <rect class="cls-1" x="90.76" y="65.94" width="9" height="8.38" rx="1" ry="1"/>
      <path class="cls-1" d="m79.67,107.41v-22.82c0-.55.45-1,1-1h12.91c.55,0,1,.45,1,1v22.82"/>
      <circle class="cls-1" cx="81.12" cy="95.8" r=".31"/>
    </g>
    <rect class="cls-2" width="131.81" height="122.89"/>
  </g>
</svg>