<?xml version="1.0" encoding="UTF-8"?>
<svg id="Layer_2" data-name="Layer 2" xmlns="http://www.w3.org/2000/svg" viewBox="0 0 131.81 122.89">
  <defs>
    <style>
      .cls-1 {
        stroke-miterlimit: 10;
      }

      .cls-1, .cls-2 {
        stroke: #48466d;
        stroke-linecap: round;
      }

      .cls-1, .cls-2, .cls-3 {
        fill: none;
      }

      .cls-2 {
        stroke-linejoin: round;
      }
    </style>
  </defs>
  <g id="Layer_1-2" data-name="Layer 1">
    <g>
      <polyline class="cls-1" points="79 39.98 79 26.33 52.81 26.33 52.81 71.62"/>
      <line class="cls-1" x1="79" y1="49.06" x2="79" y2="47.71"/>
      <line class="cls-1" x1="79" y1="71.62" x2="79" y2="56.62"/>
      <g>
        <polyline class="cls-1" points="65.75 107.39 20.81 107.39 20.81 45.04 44.34 45.04 44.34 107.39"/>
        <polyline class="cls-1" points="44.34 71.62 52.81 71.62 52.81 76.21 61.75 76.21 61.75 71.62 66.06 71.62"/>
        <polyline class="cls-1" points="20.81 45.04 32.69 23.86 44.34 45.04"/>
        <path class="cls-2" d="m36.93,64.1l-3.62-2.54c-.44-.31-1.03-.32-1.48-.02l-3.84,2.56v8.18h8.94v-8.18Z"/>
        <path class="cls-2" d="m36.93,87.86l-3.62-2.54c-.44-.31-1.03-.32-1.48-.02l-3.84,2.56v8.18h8.94v-8.18Z"/>
        <polygon class="cls-2" points="23.28 23.86 32.58 23.86 32.58 15.86 23.28 15.86 28.58 19.86 23.28 23.86"/>
      </g>
      <g>
        <polyline class="cls-1" points="66.06 107.39 111 107.39 111 45.04 87.47 45.04 87.47 107.39"/>
        <polyline class="cls-1" points="87.47 71.62 79 71.62 79 76.21 70.06 76.21 70.06 71.62 65.75 71.62"/>
        <polyline class="cls-1" points="111 45.04 99.11 23.86 87.47 45.04"/>
        <path class="cls-2" d="m94.88,64.1l3.62-2.54c.44-.31,1.03-.32,1.48-.02l3.84,2.56v8.18h-8.94v-8.18Z"/>
        <path class="cls-2" d="m94.88,87.86l3.62-2.54c.44-.31,1.03-.32,1.48-.02l3.84,2.56v8.18h-8.94v-8.18Z"/>
        <polygon class="cls-2" points="90.23 23.86 99.53 23.86 99.53 15.86 90.23 15.86 95.53 19.86 90.23 23.86"/>
      </g>
      <path class="cls-2" d="m69.47,55.86l-2.76-1.94c-.34-.24-.78-.24-1.13-.01l-2.93,1.95v6.24h6.82v-6.24Z"/>
      <path class="cls-2" d="m69.47,38.8l-2.76-1.94c-.34-.24-.78-.24-1.13-.01l-2.93,1.95v6.24h6.82v-6.24Z"/>
      <path class="cls-2" d="m74.99,96.87c0-4.87-3.95-8.82-8.82-8.82s-8.82,3.95-8.82,8.82v10.52"/>
      <line class="cls-2" x1="74.99" y1="97.07" x2="74.99" y2="107.39"/>
      <polyline class="cls-2" points="52.81 26.33 51.46 24.98 51.46 15.86 57.28 15.86 57.28 19.15 62.99 19.15 62.99 15.86 69.47 15.86 69.47 18.98 74.46 18.98 74.46 15.86 80.46 15.86 80.46 24.92 79 26.33"/>
    </g>
    <rect class="cls-3" width="131.81" height="122.89"/>
  </g>
</svg>