<?xml version="1.0" encoding="UTF-8"?>
<svg id="Layer_2" data-name="Layer 2" xmlns="http://www.w3.org/2000/svg" viewBox="0 0 131.81 122.89">
  <defs>
    <style>
      .cls-1 {
        stroke: #48466d;
        stroke-linecap: round;
        stroke-miterlimit: 10;
      }

      .cls-1, .cls-2 {
        fill: none;
      }
    </style>
  </defs>
  <g id="Layer_1-2" data-name="Layer 1">
    <g>
      <polyline class="cls-1" points="45.1 38.31 45.1 107.41 87.03 107.41 87.03 80.9"/>
      <path class="cls-1" d="m45.1,31.81v-11.27c0-.55.45-1,1-1h5.41c.55,0,1,.45,1,1v5.4"/>
      <rect class="cls-1" x="52.73" y="49" width="9" height="8.38" rx="1" ry="1"/>
      <rect class="cls-1" x="69.78" y="49" width="9" height="8.38" rx="1" ry="1"/>
      <rect class="cls-1" x="52.73" y="65.94" width="9" height="8.38" rx="1" ry="1"/>
      <rect class="cls-1" x="69.78" y="65.94" width="9" height="8.38" rx="1" ry="1"/>
      <path class="cls-1" d="m58.69,107.41v-22.82c0-.55.45-1,1-1h12.91c.55,0,1,.45,1,1v22.82"/>
      <circle class="cls-1" cx="60.14" cy="95.81" r=".31"/>
      <line class="cls-1" x1="87.1" y1="73.93" x2="87.1" y2="75.25"/>
      <line class="cls-1" x1="87.1" y1="37.93" x2="87.1" y2="66.21"/>
      <path class="cls-1" d="m66.56,25.67c-.37-.29-.89-.29-1.25,0l-17.42,13.97c-.38.3-.92.29-1.29-.03l-4.47-3.95c-.47-.41-.45-1.15.04-1.53l22.53-17.86c.73-.58,1.76-.58,2.49,0l19.93,15.8"/>
      <path class="cls-1" d="m87.11,32.07l2.53,2.05c.49.39.51,1.12.04,1.53l-4.47,3.95c-.36.32-.91.33-1.29.03l-17.36-13.96"/>
    </g>
    <rect class="cls-2" width="131.81" height="122.89"/>
  </g>
</svg>