<?xml version="1.0" encoding="UTF-8"?>
<svg id="Layer_2" data-name="Layer 2" xmlns="http://www.w3.org/2000/svg" viewBox="0 0 131.81 122.89">
  <defs>
    <style>
      .cls-1 {
        stroke-miterlimit: 10;
      }

      .cls-1, .cls-2 {
        stroke: #48466d;
      }

      .cls-1, .cls-2, .cls-3 {
        fill: none;
      }

      .cls-2 {
        stroke-linecap: round;
        stroke-linejoin: round;
      }
    </style>
  </defs>
  <g id="Layer_1-2" data-name="Layer 1">
    <g>
      <rect class="cls-1" x="22.36" y="56.46" width="87.53" height="42"/>
      <polyline class="cls-2" points="68.68 33.79 32.07 33.79 20.42 56.46 111.39 56.46 99.74 33.79 85.8 33.79"/>
      <line class="cls-2" x1="76.54" y1="33.79" x2="77.95" y2="33.79"/>
      <line class="cls-2" x1="65.9" y1="56.46" x2="65.9" y2="46.58"/>
      <line class="cls-2" x1="75.92" y1="56.46" x2="74.68" y2="46.58"/>
      <line class="cls-2" x1="84.39" y1="46.58" x2="86.51" y2="56.46"/>
      <line class="cls-2" x1="93.74" y1="46.58" x2="97.1" y2="56.46"/>
      <line class="cls-2" x1="56.07" y1="56.46" x2="57.3" y2="46.58"/>
      <line class="cls-2" x1="47.6" y1="46.58" x2="45.48" y2="56.46"/>
      <line class="cls-2" x1="38.24" y1="46.58" x2="34.89" y2="56.46"/>
      <rect class="cls-2" x="29.77" y="69.17" width="18.62" height="18.62" rx="1" ry="1"/>
      <line class="cls-2" x1="29.77" y1="78.48" x2="48.39" y2="78.48"/>
      <line class="cls-2" x1="39.08" y1="69.17" x2="39.08" y2="87.79"/>
      <rect class="cls-2" x="83.6" y="69.17" width="18.62" height="18.62" rx="1" ry="1"/>
      <line class="cls-2" x1="83.6" y1="78.48" x2="102.21" y2="78.48"/>
      <line class="cls-2" x1="92.9" y1="69.17" x2="92.9" y2="87.79"/>
      <rect class="cls-2" x="57.3" y="69.61" width="17.38" height="28.85"/>
      <circle class="cls-2" cx="59.45" cy="84.25" r=".21"/>
      <rect class="cls-2" x="40.8" y="24.79" width="13.24" height="9"/>
    </g>
    <rect class="cls-3" width="131.81" height="122.89"/>
  </g>
</svg>