
        <svg xmlns="http://www.w3.org/2000/svg" xmlns:xlink="http://www.w3.org/1999/xlink" version="1.1" width="3171.4285714285716" height="1557.1358671371627" viewBox="0 0 3171.4285714285716 1557.1358671371627">
			
			<g transform="scale(8.571428571428571) translate(10, 10)">
				<defs id="SvgjsDefs2828"/><g id="SvgjsG2829" featureKey="symbolFeature-0" transform="matrix(1.1574074074074074,0,0,1.1574074074074074,117.74074074074073,-17.361040468569154)" fill="#fff"><g xmlns="http://www.w3.org/2000/svg" transform="translate(0,-952.36218)"><path style="text-indent:0;text-transform:none;direction:ltr;block-progression:tb;baseline-shift:baseline;color:;enable-background:accumulate;" d="m 51,967.36321 c -0.25012,-0.017 -0.46806,0.1782 -0.65625,0.2497 l -37,30.9858 c -0.65142,0.5198 -0.17682,1.80739 0.65625,1.78039 l 8,0 0,24.9886 2,0 0,-25.98809 c -5e-5,-0.5234 -0.47642,-0.9995 -1,-0.9996 l -6.25,0 34.25,-28.6743 18.34375,15.4304 c 0.57403,0.4988 1.65263,0.011 1.65625,-0.7496 l 0,-9.9955 7,0 0,15.9927 c 0.002,0.2536 0.10488,0.505 0.28125,0.6872 l 7.3125,7.3091 -6.59375,0 c -0.52358,10e-5 -0.99995,0.4762 -1,0.9996 l 0,25.98809 c 5e-5,0.5234 0.47642,0.9994 1,0.9995 l 11,0 0,8.9959 -82,-0.014 0,1.9991 83,0.014 c 0.52358,-10e-5 0.99995,-0.4762 1,-0.9995 l 0,-10.995 c -5e-5,-0.5234 -0.47642,-0.9995 -1,-0.9996 l -11,0 0,-23.989 8,0 c 0.79872,0.019 1.29312,-1.16279 0.71875,-1.71799 L 80,989.94661 l 0,-16.5549 c -5e-5,-0.5234 -0.47642,-0.9995 -1,-0.9996 l -9,0 c -0.52358,10e-5 -0.99995,0.4762 -1,0.9996 l 0,8.8085 -17.34375,-14.5871 c -0.17939,-0.1581 -0.41707,-0.2486 -0.65625,-0.2499 z m -10.1875,27.0189 c -0.4584,0.088 -0.82072,0.5331 -0.8125,0.9995 l 0,19.99089 c 5e-5,0.5233 0.47642,0.9994 1,0.9995 l 20,0 c 0.52358,-10e-5 0.99995,-0.4762 1,-0.9995 l 0,-19.99089 c -5e-5,-0.5233 -0.47642,-0.9994 -1,-0.9995 -6.72346,0 -13.47832,0 -20.1875,0 z m 1.1875,1.9991 8,0 0,7.99629 -8,0 z m 10,0 8,0 0,7.99629 -8,0 z m -10,9.99539 8,0 0,7.9963 -8,0 z m 10,0 8,0 0,7.9963 -8,0 z" fill-opacity="1" stroke="none" marker="none" visibility="visible" display="inline" overflow="visible"/></g></g><g id="SvgjsG2830" featureKey="nameFeature-0" transform="matrix(0.9739252837077097,0,0,0.9739252837077097,-2.003092324020377,90.44334731045363)" fill="#fff"><path d="M21.756 50.216 c0.18641 0 0.31594 0.12953 0.31594 0.30754 c0 0.18641 -0.12961 0.31602 -0.31602 0.31602 l-5.12 0 l0 -16.224 c-1.1092 3.3544 -3.5132 5.7048 -6.7616 5.7048 c-4.0884 0 -7.8176 -2.9176 -7.8176 -9.3548 c0 -6.084 3.7252 -9.3112 7.818 -9.3112 c3.306 0 5.6852 2.44 6.7612 5.7284 l0 -5.4236 l3.12 0 l0 27.292 c0 0.5144 0.38602 0.96404 0.96404 0.96404 l1.036 0 z M10.762 39.40112 c3.0704 0 5.8992 -3.8168 5.8992 -8.3932 c0 -4.6112 -2.862 -8.4332 -5.8992 -8.4332 c-3.1132 0 -5.3548 2.5188 -5.3548 8.4016 c0 5.906 2.2416 8.4248 5.3548 8.4248 z M45.133 39.3764 c0.18602 0 0.31531 0.12976 0.31531 0.30777 c0 0.18641 -0.12961 0.31602 -0.31562 0.31602 l-5.12 0 l0 -5.3028 c-0.9752 3.2024 -3.3128 5.5756 -6.8704 5.5756 c-3.44 0 -5.4992 -2.0164 -5.4992 -5.5724 l0 -11.153 c0 -0.5144 -0.38602 -0.96404 -0.96404 -0.96404 l-1.036 0 c-0.18641 0 -0.31602 -0.12961 -0.31602 -0.30762 c0 -0.18641 0.12961 -0.31602 0.31602 -0.31602 l5.12 0 l0 12.011 c0 4.0236 1.8084 5.192 3.4884 5.192 c3.5684 0 5.7616 -3.8096 5.7616 -8.2676 l0 -7.3476 c0 -0.5144 -0.38602 -0.96404 -0.96404 -0.96404 l-1.036 0 c-0.18602 0 -0.31562 -0.12961 -0.31562 -0.30762 c0 -0.18641 0.12961 -0.31602 0.31562 -0.31602 l5.12 0 l0 16.452 c0 0.5144 0.38602 0.96404 0.96404 0.96404 l1.036 0 z M50.90560000000001 15.788 c0 -1.0068 0.8288 -1.8356 1.8676 -1.8356 c0.9904 0 1.8196 0.8288 1.8196 1.8356 c0 0.9904 -0.8292 1.8192 -1.8196 1.8192 c-1.0388 0 -1.8676 -0.8288 -1.8676 -1.8192 z M56.320800000000006 39.3764 c0.18641 0 0.31558 0.12969 0.31558 0.3077 c0 0.18641 -0.12961 0.31602 -0.31602 0.31602 l-7.12 0 c-0.18641 0 -0.31602 -0.12961 -0.31602 -0.31602 c0 -0.17801 0.12961 -0.30762 0.31602 -0.30762 l1.036 0 c0.578 0 0.96404 -0.4496 0.96404 -0.96404 l0 -14.865 c0 -0.5144 -0.38602 -0.96404 -0.96404 -0.96404 l-1.036 0 c-0.18641 0 -0.31602 -0.12961 -0.31602 -0.30762 c0 -0.18641 0.12961 -0.31602 0.31602 -0.31602 l5.12 0 l0 16.452 c0 0.5144 0.38641 0.96404 0.9644 0.96404 l1.036 0 z M76.87800000000001 27.102 c0 1.6704 -0.91644 2.4189 -1.8848 2.4189 c-0.8868 0 -1.618 -0.7268 -1.618 -1.618 c0 -1.3504 1.5144 -1.592 1.5144 -2.6264 c0 -1.582 -2.3268 -2.96 -5.0124 -2.96 c-2.8304 0 -5.8704 2.0288 -5.8704 8.6028 c0 5.4964 2.4388 8.4592 6.1436 8.4592 c3.5088 0 5.3432 -2.6288 6.0892 -4.528 c0.056408 -0.1616 0.16121 -0.24281 0.30762 -0.24281 c0.25078 0 0.34719 0.21922 0.29078 0.4124 c-0.6136 1.8 -2.6288 5.2372 -7.1324 5.2372 c-5.8236 0 -9.058 -3.8812 -9.058 -9.3376 c0 -6.4496 4.5132 -9.2648 8.8512 -9.2648 c4.2952 0 7.3792 2.3684 7.3792 5.4472 z M88.87480000000001 39.3764 c0.18641 0 0.31558 0.12969 0.31558 0.3077 c0 0.18641 -0.12961 0.31602 -0.31602 0.31602 l-7.12 0 c-0.18641 0 -0.31602 -0.12961 -0.31602 -0.31602 c0 -0.17801 0.12961 -0.30762 0.31602 -0.30762 l1.036 0 c0.578 0 0.96404 -0.4496 0.96404 -0.96404 l0 -25.985 c0 -0.5144 -0.38602 -0.96404 -0.96404 -0.96404 l-1.036 0 c-0.18641 0 -0.31602 -0.12961 -0.31602 -0.30762 c0 -0.18641 0.12961 -0.31602 0.31602 -0.31602 l5.12 0 l0 27.572 c0 0.5144 0.38641 0.96404 0.9644 0.96404 l1.036 0 z M100.23300000000002 39.37648 c0.18602 0 0.31527 0.12926 0.31527 0.31566 c0 0.17801 -0.12961 0.30762 -0.31562 0.30762 l-7.4788 0 c-0.18602 0 -0.31562 -0.12961 -0.31562 -0.31602 c0 -0.17801 0.12961 -0.30762 0.31602 -0.30762 l1.0484 0 c0.5328 0 0.7496 -0.4528 0.2816 -1.0108 l-6.6248 -7.8952 l8.764 -6.956 c0.4104 -0.32 0.3532 -0.9312 -0.4732 -0.9312 l-1.4884 0 c-0.18602 0 -0.31562 -0.12961 -0.31562 -0.31562 c0 -0.17801 0.12961 -0.30762 0.31562 -0.30762 l5.8096 0 c0.18641 0 0.31602 0.12961 0.31602 0.31602 c0 0.17801 -0.12961 0.30762 -0.31602 0.30762 l-0.29641 0 c-0.9944 0 -1.604 0.20641 -2.5396 0.9312 l-6.9764 5.53 l7.88 9.412 c0.4816 0.5992 1.0552 0.92 1.8 0.92 l0.29398 0 z M133.30900000000003 39.3764 c0.18641 0 0.31508 0.12961 0.31508 0.30762 c0 0.18641 -0.12961 0.31602 -0.31602 0.31602 l-7.12 0 c-0.18602 0 -0.31562 -0.12961 -0.31562 -0.31602 c0 -0.17801 0.12961 -0.30762 0.31602 -0.30762 l1.036 0 c0.578 0 0.96404 -0.4496 0.96404 -0.96404 l0 -10.392 c0 -4.0236 -1.9984 -5.192 -3.6784 -5.192 c-3.5684 0 -6.0016 3.8096 -6.0016 8.2676 l0 7.316 c0 0.5144 0.38641 0.96404 0.9644 0.96404 l1.036 0 c0.18641 0 0.31602 0.12961 0.31602 0.30762 c0 0.18641 -0.12961 0.31602 -0.31602 0.31602 l-7.12 0 c-0.18641 0 -0.31602 -0.12961 -0.31602 -0.31602 c0 -0.17801 0.12961 -0.30762 0.31602 -0.30762 l1.036 0 c0.578 0 0.96404 -0.4496 0.96404 -0.96404 l0 -25.985 c0 -0.5144 -0.38602 -0.96404 -0.96404 -0.96404 l-1.036 0 c-0.18641 0 -0.31602 -0.12961 -0.31602 -0.30762 c0 -0.18641 0.12961 -0.31602 0.31602 -0.31602 l5.12 0 l0 16.62 c1.0316 -3.3048 3.5408 -5.7412 7.11 -5.7412 c3.44 0 5.6896 2.0164 5.6896 5.5724 l0 11.121 c0 0.5144 0.38641 0.96404 0.9644 0.96404 l1.036 0 z M146.401 40.25801 c-4.9268 0 -8.7656 -3.326 -8.7656 -9.33 c0 -5.7888 3.7312 -9.2728 8.7656 -9.2728 c4.8524 0 8.7572 3.1532 8.7572 9.2732 c0 6.004 -3.7808 9.3296 -8.7572 9.3296 z M146.37900000000002 39.62719 c3.1116 -0.031602 5.4456 -3.0332 5.4456 -8.6824 c0 -5.7504 -2.3684 -8.6512 -5.4236 -8.6512 c-3.0388 0 -5.432 2.9008 -5.432 8.6512 c0 5.4288 2.2564 8.6508 5.41 8.6824 z M179.27200000000002 39.3764 c0.18602 0 0.31531 0.12976 0.31531 0.30777 c0 0.18641 -0.12961 0.31602 -0.31562 0.31602 l-5.12 0 l0 -5.3028 c-0.9752 3.2024 -3.3128 5.5756 -6.8704 5.5756 c-3.44 0 -5.4992 -2.0164 -5.4992 -5.5724 l0 -11.153 c0 -0.5144 -0.38602 -0.96404 -0.96404 -0.96404 l-1.036 0 c-0.18641 0 -0.31602 -0.12961 -0.31602 -0.30762 c0 -0.18641 0.12961 -0.31602 0.31602 -0.31602 l5.12 0 l0 12.011 c0 4.0236 1.8084 5.192 3.4884 5.192 c3.5684 0 5.7616 -3.8096 5.7616 -8.2676 l0 -7.3476 c0 -0.5144 -0.38602 -0.96404 -0.96404 -0.96404 l-1.036 0 c-0.18602 0 -0.31562 -0.12961 -0.31562 -0.30762 c0 -0.18641 0.12961 -0.31602 0.31562 -0.31602 l5.12 0 l0 16.452 c0 0.5144 0.38602 0.96404 0.96404 0.96404 l1.036 0 z M191.75200000000004 22.91 c0 4.3656 7.3792 6.4436 7.3792 11.489 c0 3.8096 -3.5464 5.8592 -8.1064 5.8592 c-4.1296 0 -7.3956 -2.0952 -7.3956 -5.4968 c0 -1.3016 0.7096 -1.9904 1.4396 -2.1484 l5.1332 -9.404 c0.2332 -0.9388 0.6848 -1.8316 1.168 -2.6036 c0.35879 -0.5656 0.8124 -1.0028 1.0208 -1.0028 c0.21801 0 0.33922 0.1848 0.27562 0.35442 c-0.5076 0.924 -0.9144 1.7888 -0.9144 2.9528 z M190.63900000000004 39.58836 c4.138 0 5.4948 -2.1268 5.4948 -4.4468 c0 -3.5588 -6.3848 -5.9404 -6.1848 -10.245 l-4.208 7.7476 c0.5744 0.10641 1.0856 0.5736 1.0856 1.3996 c0 1.1932 -1.4564 1.484 -1.4564 2.4936 c0 1.6068 2.3764 3.0508 5.2688 3.0508 z M219.86200000000002 30.5364 c0 0.31039 -0.14809 0.42248 -0.51488 0.42248 l-12.843 0 c0 4.5504 1.8552 8.378 6.2512 8.378 c3.5364 0 5.4576 -2.5888 6.1472 -4.4948 c0.081212 -0.21121 0.19442 -0.26762 0.31562 -0.26762 c0.22641 0 0.3148 0.16961 0.2832 0.36281 c-0.31719 1.2304 -2.2412 5.32 -7.19 5.32 c-4.894 0 -9.1656 -2.8884 -9.1656 -9.3296 c0 -5.8964 3.5808 -9.2728 8.5836 -9.2728 c4.7684 0 8.1324 3.1008 8.1324 8.8816 z M206.51240000000004 30.3684 l10.096 -0.00035156 c-0.033203 -5.4964 -1.9792 -8.084 -4.8812 -8.084 c-2.914 0 -5.0704 2.8156 -5.2144 8.0844 z M246.69200000000004 21.639 c4.0884 0 7.8176 2.9178 7.8176 9.3548 c0 6.084 -3.7252 9.3112 -7.818 9.3112 c-3.306 0 -5.6852 -2.44 -6.7612 -5.7284 l0 5.4236 l-5.12 0 c-0.18641 0 -0.31602 -0.12961 -0.31602 -0.31602 c0 -0.17801 0.12961 -0.30762 0.31602 -0.30762 l1.036 0 c0.578 0 0.96404 -0.4496 0.96404 -0.96404 l0 -25.985 c0 -0.5144 -0.38602 -0.96404 -0.96404 -0.96404 l-1.036 0 c-0.18641 0 -0.31602 -0.12961 -0.31602 -0.30762 c0 -0.18641 0.12961 -0.31602 0.31602 -0.31602 l5.12 0 l0 16.504 c1.1092 -3.3544 3.5132 -5.7048 6.7616 -5.7048 z M245.80600000000004 39.38496 c3.1132 0 5.3548 -2.5188 5.3548 -8.4016 c0 -5.906 -2.2416 -8.4244 -5.3548 -8.4244 c-3.0704 0 -5.8992 3.8164 -5.8992 8.3928 c0 4.6112 2.862 8.4332 5.8992 8.4332 z M278.6170000000001 39.3764 c0.18602 0 0.31531 0.12976 0.31531 0.30777 c0 0.18641 -0.12961 0.31602 -0.31562 0.31602 l-5.12 0 l0 -5.3028 c-0.9752 3.2024 -3.3128 5.5756 -6.8704 5.5756 c-3.44 0 -5.4992 -2.0164 -5.4992 -5.5724 l0 -11.153 c0 -0.5144 -0.38602 -0.96404 -0.96404 -0.96404 l-1.036 0 c-0.18641 0 -0.31602 -0.12961 -0.31602 -0.30762 c0 -0.18641 0.12961 -0.31602 0.31602 -0.31602 l5.12 0 l0 12.011 c0 4.0236 1.8084 5.192 3.4884 5.192 c3.5684 0 5.7616 -3.8096 5.7616 -8.2676 l0 -7.3476 c0 -0.5144 -0.38602 -0.96404 -0.96404 -0.96404 l-1.036 0 c-0.18602 0 -0.31562 -0.12961 -0.31562 -0.30762 c0 -0.18641 0.12961 -0.31602 0.31562 -0.31602 l5.12 0 l0 16.452 c0 0.5144 0.38602 0.96404 0.96404 0.96404 l1.036 0 z M295.0540000000001 21.96 l5.1192 -0.00015625 l0 19.816 c0 6.2412 -3.0564 9.4124 -9.1944 9.4124 c-4.894 0 -7.4664 -2.9612 -7.4664 -5.9004 c0 -1.5504 0.982 -2.258 1.876 -2.258 c0.774 0 1.4912 0.5392 1.4912 1.546 c0 1.342 -1.3916 1.3104 -1.3916 2.5836 c0 1.16 1.534 3.374 5.2816 3.374 c4.6372 0 6.284 -3.5876 6.284 -7.5488 l0 -8.2876 c-0.9752 3.2024 -3.3128 5.5756 -6.8704 5.5756 c-3.44 0 -5.4992 -2.0164 -5.4992 -5.5724 l0 -11.153 c0 -0.5144 -0.38602 -0.96404 -0.96404 -0.96404 l-1.036 0 c-0.18641 0 -0.31602 -0.12961 -0.31602 -0.30762 c0 -0.18641 0.12961 -0.31602 0.31602 -0.31602 l5.12 0 l0 12.011 c0 4.0236 1.8084 5.192 3.4884 5.192 c3.5684 0 5.7616 -3.8096 5.7616 -8.2676 l0 -7.3476 c0 -0.5144 -0.38602 -0.96404 -0.96404 -0.96404 l-1.036 0 c-0.18602 0 -0.31562 -0.12961 -0.31562 -0.30762 c0 -0.18641 0.12961 -0.31602 0.31562 -0.31602 z M323.00700000000006 30.5364 c0 0.31039 -0.14809 0.42248 -0.51488 0.42248 l-12.843 0 c0 4.5504 1.8552 8.378 6.2512 8.378 c3.5364 0 5.4576 -2.5888 6.1472 -4.4948 c0.081212 -0.21121 0.19442 -0.26762 0.31562 -0.26762 c0.22641 0 0.3148 0.16961 0.2832 0.36281 c-0.31719 1.2304 -2.2412 5.32 -7.19 5.32 c-4.894 0 -9.1656 -2.8884 -9.1656 -9.3296 c0 -5.8964 3.5808 -9.2728 8.5836 -9.2728 c4.7684 0 8.1324 3.1008 8.1324 8.8816 z M309.65740000000005 30.3684 l10.096 -0.00035156 c-0.033203 -5.4964 -1.9792 -8.084 -4.8812 -8.084 c-2.914 0 -5.0704 2.8156 -5.2144 8.0844 z M338.9340000000001 21.719 c2.6564 0 3.6773 1.8025 3.6773 3.5985 c0 1.3684 -0.6868 2.618 -2.0964 2.618 c-0.9104 0 -1.658 -0.5904 -1.658 -1.618 c0 -1.1836 1.3008 -1.6636 1.3008 -2.5312 c0 -0.7116 -0.6332 -1.208 -1.7284 -1.208 c-2.7628 0 -5.4304 3.6868 -5.4304 9.6344 l0 6.2 c0 0.5144 0.38641 0.96404 0.9644 0.96404 l2.2056 0 c0.18602 0 0.31562 0.12961 0.31562 0.31602 c0 0.17801 -0.12961 0.30762 -0.31602 0.30762 l-8.2896 0 c-0.18641 0 -0.31602 -0.12961 -0.31602 -0.31602 c0 -0.17801 0.12961 -0.30762 0.31602 -0.30762 l1.036 0 c0.578 0 0.96404 -0.4496 0.96404 -0.96404 l0 -14.865 c0 -0.5144 -0.38602 -0.96404 -0.96404 -0.96404 l-1.036 0 c-0.18641 0 -0.31602 -0.12961 -0.31602 -0.30762 c0 -0.18641 0.12961 -0.31602 0.31602 -0.31602 l5.12 0 l0 5.9168 c1.068 -4.4752 3.7568 -6.158 5.9352 -6.158 z M354.04800000000006 22.91 c0 4.3656 7.3792 6.4436 7.3792 11.489 c0 3.8096 -3.5464 5.8592 -8.1064 5.8592 c-4.1296 0 -7.3956 -2.0952 -7.3956 -5.4968 c0 -1.3016 0.7096 -1.9904 1.4396 -2.1484 l5.1332 -9.404 c0.2332 -0.9388 0.6848 -1.8316 1.168 -2.6036 c0.35879 -0.5656 0.8124 -1.0028 1.0208 -1.0028 c0.21801 0 0.33922 0.1848 0.27562 0.35442 c-0.5076 0.924 -0.9144 1.7888 -0.9144 2.9528 z M352.93500000000006 39.58836 c4.138 0 5.4948 -2.1268 5.4948 -4.4468 c0 -3.5588 -6.3848 -5.9404 -6.1848 -10.245 l-4.208 7.7476 c0.5744 0.10641 1.0856 0.5736 1.0856 1.3996 c0 1.1932 -1.4564 1.484 -1.4564 2.4936 c0 1.6068 2.3764 3.0508 5.2688 3.0508 z"/></g><g id="SvgjsG2831" featureKey="sloganFeature-0" transform="matrix(0.8101284673503055,0,0,0.8101284673503055,59.6759485358,145.3012555074472)" fill="#fff"><path d="M5.1 17.8 l3 -9.6 l1.9 0 l3 9.6 l0.1 0 l3.1 -11.8 l1.5 0 l0 0.6 l-3.6 13.4 l-1.9 0 l-3.1 -9.8 l-0.1 0 l-3.1 9.8 l-1.9 0 l-3.6 -13.4 l0 -0.6 l1.5 0 l3.1 11.8 l0.1 0 z M25.9825 20 l0 -14 l9.1 0 l0 0.9 l-0.4 0.4 l-7.2 0 l0 4.9 l5.7 0 l0 1.3 l-5.7 0 l0 5.2 l7.6 0 l0 1.3 l-9.1 0 z M63.5475 20 l-6.2 0 c-2.1 0 -3.5 -1.4 -3.5 -3.3 l0 -7.4 c0 -1.9 1.4 -3.3 3.5 -3.3 l5.8 0 l0 0.9 l-0.4 0.4 l-5.4 0 c-1.1 0 -2 0.9 -2 2 l0 7.4 c0 1.1 0.9 2 2 2 l4.7 0 l0 -6.3 l1.5 0 l0 7.6 z M73.03 20 l0 -14 l9.1 0 l0 0.9 l-0.4 0.4 l-7.2 0 l0 4.9 l5.7 0 l0 1.3 l-5.7 0 l0 5.2 l7.6 0 l0 1.3 l-9.1 0 z M94.7125 7.300000000000001 l0 12.7 l-1.5 0 l0 -12.7 l-4.4 0 l0 -1.3 l10.3 0 l0 0.9 l-0.4 0.4 l-4 0 z M121.67750000000004 15.7 l0 4.3 l-1.5 0 l0 -4.3 l-4.7 -9.1 l0 -0.6 l1.5 0 l3.9 8.1 l0.1 0 l3.9 -8.1 l1.5 0 l0 0.6 z M134.06000000000003 16.9 l0 -7.8 c0 -1.9 1.4 -3.3 3.5 -3.3 l3.5 0 c2.1 0 3.5 1.4 3.5 3.3 l0 7.8 c0 1.9 -1.4 3.3 -3.5 3.3 l-3.5 0 c-2.1 0 -3.5 -1.4 -3.5 -3.3 z M143.06000000000003 16.9 l0 -7.8 c0 -1.1 -0.9 -2 -2 -2 l-3.5 0 c-1.1 0 -2 0.9 -2 2 l0 7.8 c0 1.1 0.9 2 2 2 l3.5 0 c1.1 0 2 -0.9 2 -2 z M160.54250000000005 20.2 l-3 0 c-2.1 0 -3.5 -1.4 -3.5 -3.3 l0 -10.9 l1.5 0 l0 10.9 c0 1.1 0.9 2 2 2 l3 0 c1.1 0 2 -0.9 2 -2 l0 -10.9 l1.5 0 l0 10.9 c0 1.9 -1.4 3.3 -3.5 3.3 z M192.40750000000006 18.1 l-1.5 0 l-4.1 -9.8 l-0.1 0 l-1.4 11.7 l-1.5 0 l0 -0.6 l1.8 -13.4 l1.8 0 l4.2 10.1 l0.1 0 l4.2 -10.1 l1.8 0 l1.8 13.4 l0 0.6 l-1.5 0 l-1.4 -11.7 l-0.1 0 z M208.19000000000003 16.9 l0 -7.8 c0 -1.9 1.4 -3.3 3.5 -3.3 l3.5 0 c2.1 0 3.5 1.4 3.5 3.3 l0 7.8 c0 1.9 -1.4 3.3 -3.5 3.3 l-3.5 0 c-2.1 0 -3.5 -1.4 -3.5 -3.3 z M217.19000000000003 16.9 l0 -7.8 c0 -1.1 -0.9 -2 -2 -2 l-3.5 0 c-1.1 0 -2 0.9 -2 2 l0 7.8 c0 1.1 0.9 2 2 2 l3.5 0 c1.1 0 2 -0.9 2 -2 z M231.87250000000006 18.2 l0.1 0 l4 -12.2 l1.5 0 l0 0.6 l-4.6 13.4 l-1.9 0 l-4.6 -13.4 l0 -0.6 l1.5 0 z M247.15500000000006 20 l-1.5 0 l0 -14 l1.5 0 l0 14 z M265.23750000000007 20 l-6.8 -11.5 l-0.1 0 l0.2 2.6 l0 8.9 l-1.5 0 l0 -14 l1.6 0 l6.8 11.5 l0.1 0 l-0.2 -2.6 l0 -8.9 l1.5 0 l0 14 l-1.6 0 z M286.02000000000004 20 l-6.2 0 c-2.1 0 -3.5 -1.4 -3.5 -3.3 l0 -7.4 c0 -1.9 1.4 -3.3 3.5 -3.3 l5.8 0 l0 0.9 l-0.4 0.4 l-5.4 0 c-1.1 0 -2 0.9 -2 2 l0 7.4 c0 1.1 0.9 2 2 2 l4.7 0 l0 -6.3 l1.5 0 l0 7.6 z"/></g>
			</g>
		</svg>
	